<svg enable-background="new 0 0 134 45" viewBox="0 0 134 45" xmlns="http://www.w3.org/2000/svg"><path d="m123.33 0h-112.65c-.41 0-.82 0-1.23 0-.34 0-.68.01-1.03.02-.75.01-1.5.08-2.24.2s-1.46.36-2.13.7c-.67.35-1.28.79-1.81 1.33-.54.53-.98 1.15-1.32 1.82s-.58 1.4-.7 2.14-.19 1.5-.2 2.25c-.01.35-.01.7-.02 1.04v26c.01.35.01.69.02 1.04.01.75.08 1.51.2 2.25.12.75.36 1.47.7 2.14s.78 1.29 1.32 1.82c.53.54 1.14.98 1.81 1.33.67.34 1.39.58 2.13.71.74.12 1.49.19 2.24.2.35 0 .69.01 1.03.01h1.23 112.65 1.21c.34 0 .69 0 1.03-.01.75-.01 1.5-.08 2.24-.2.74-.13 1.46-.37 2.14-.71.67-.34 1.28-.79 1.81-1.33.53-.53.98-1.14 1.32-1.82.34-.67.57-1.4.69-2.14s.19-1.5.21-2.25c0-.35 0-.69 0-1.04.01-.41.01-.82.01-1.23v-23.54c0-.41 0-.82-.01-1.23 0-.34 0-.69 0-1.04-.01-.75-.08-1.51-.21-2.25-.12-.74-.36-1.47-.69-2.14-.69-1.35-1.79-2.45-3.13-3.15-.67-.34-1.39-.58-2.14-.71-.74-.12-1.49-.19-2.24-.2-.34 0-.69-.01-1.03-.01-.4 0-.81 0-1.21 0z" fill="#fff"/><path d="m9.46 44.02c-.34 0-.67 0-1.01-.01-.7-.01-1.4-.07-2.09-.18-.65-.12-1.28-.33-1.86-.63-.58-.29-1.11-.68-1.56-1.14-.46-.46-.85-.99-1.14-1.57-.3-.59-.5-1.22-.61-1.86-.12-.7-.18-1.4-.19-2.11-.01-.24-.02-1.03-.02-1.03v-25.99s.01-.78.02-1.01c0-.7.06-1.41.18-2.1.11-.65.31-1.28.61-1.87.29-.58.67-1.12 1.13-1.57.47-.47.99-.86 1.58-1.16.58-.3 1.21-.5 1.85-.61.69-.11 1.39-.17 2.1-.18l1.01-.01h115.08l1.02.01c.7.01 1.39.07 2.08.18.65.11 1.28.32 1.87.62 1.16.6 2.11 1.55 2.7 2.72.29.58.49 1.21.6 1.86.12.7.18 1.41.19 2.12v1c.01.42.01.82.01 1.23v23.54c0 .41 0 .81-.01 1.21v1.05c-.01.7-.08 1.4-.19 2.09-.1.65-.31 1.29-.6 1.88-.3.58-.68 1.1-1.14 1.56-.46.47-.99.85-1.57 1.15-.59.3-1.22.51-1.87.62-.69.11-1.39.17-2.09.18-.33.01-.67.01-1 .01h-1.21z" fill="#010101"/><g fill="#fff"><path d="m27.74 22.84c.02-1.91 1.02-3.67 2.64-4.67-1.03-1.47-2.68-2.37-4.47-2.43-1.88-.2-3.7 1.13-4.66 1.13-.98 0-2.45-1.11-4.04-1.08-2.09.07-3.99 1.23-5.01 3.07-2.17 3.77-.55 9.3 1.52 12.35 1.04 1.49 2.25 3.16 3.84 3.1 1.55-.06 2.13-1 4.01-1 1.86 0 2.4 1 4.02.96 1.67-.03 2.72-1.5 3.72-3 .75-1.06 1.32-2.24 1.7-3.48-1.98-.84-3.27-2.79-3.27-4.95z"/><path d="m24.68 13.74c.91-1.1 1.36-2.5 1.25-3.93-1.39.15-2.67.81-3.59 1.87-.91 1.04-1.37 2.4-1.28 3.78 1.4.01 2.74-.62 3.62-1.72z"/><path d="m47.37 30.53h-5.3l-1.27 3.78h-2.25l5.02-13.97h2.33l5.02 13.97h-2.28zm-4.75-1.74h4.2l-2.07-6.13h-.06z"/><path d="m61.77 29.22c0 3.17-1.69 5.2-4.23 5.2-1.32.07-2.55-.62-3.19-1.78h-.05v5.04h-2.08v-13.56h2.01v1.69h.04c.66-1.15 1.9-1.84 3.23-1.8 2.57.01 4.27 2.05 4.27 5.21zm-2.14 0c0-2.06-1.06-3.42-2.68-3.42-1.59 0-2.66 1.38-2.66 3.42 0 2.05 1.07 3.43 2.66 3.43 1.62-.01 2.68-1.35 2.68-3.43z"/><path d="m72.93 29.22c0 3.17-1.69 5.2-4.23 5.2-1.32.07-2.55-.62-3.19-1.78h-.05v5.04h-2.08v-13.56h2.01v1.69h.04c.66-1.15 1.9-1.84 3.23-1.8 2.57.01 4.27 2.05 4.27 5.21zm-2.14 0c0-2.06-1.06-3.42-2.68-3.42-1.59 0-2.66 1.38-2.66 3.42 0 2.05 1.07 3.43 2.66 3.43 1.62-.01 2.68-1.35 2.68-3.43z"/><path d="m80.3 30.42c.15 1.39 1.49 2.29 3.32 2.29 1.75 0 3.02-.91 3.02-2.16 0-1.08-.76-1.73-2.56-2.18l-1.8-.44c-2.55-.62-3.74-1.82-3.74-3.77 0-2.41 2.09-4.07 5.06-4.07 2.94 0 4.95 1.66 5.02 4.07h-2.1c-.13-1.39-1.27-2.24-2.95-2.24s-2.82.85-2.82 2.09c0 .99.73 1.57 2.53 2.01l1.53.38c2.85.68 4.04 1.83 4.04 3.87 0 2.61-2.07 4.25-5.37 4.25-3.08 0-5.17-1.6-5.3-4.13z"/><path d="m93.33 21.71v2.41h1.93v1.66h-1.93v5.62c0 .87.39 1.28 1.23 1.28.23 0 .46-.02.68-.05v1.65c-.38.07-.77.1-1.16.1-2.05 0-2.85-.77-2.85-2.75v-5.84h-1.47v-1.66h1.47v-2.41h2.1z"/><path d="m96.38 29.22c0-3.2 1.88-5.22 4.81-5.22 2.94 0 4.81 2.01 4.81 5.22s-1.86 5.22-4.81 5.22c-2.95-.01-4.81-2.01-4.81-5.22zm7.49 0c0-2.2-1-3.5-2.69-3.5s-2.69 1.31-2.69 3.5c0 2.21 1 3.49 2.69 3.49s2.69-1.29 2.69-3.49z"/><path d="m107.71 24.12h1.98v1.73h.05c.28-1.12 1.29-1.88 2.44-1.84.24 0 .48.03.71.08v1.96c-.3-.09-.62-.14-.94-.13-1.16-.05-2.13.86-2.18 2.02 0 .11 0 .22.01.32v6.04h-2.08z"/><path d="m122.49 31.32c-.28 1.85-2.07 3.12-4.37 3.12-2.95 0-4.78-1.99-4.78-5.17 0-3.19 1.84-5.27 4.69-5.27 2.8 0 4.57 1.94 4.57 5.02v.72h-7.16v.13c-.13 1.46.94 2.75 2.4 2.88.11.01.22.01.33.01 1.01.1 1.96-.49 2.34-1.43zm-7.04-3.04h5.07c.07-1.35-.95-2.51-2.3-2.58-.06 0-.13 0-.19 0-1.42-.01-2.57 1.14-2.58 2.56z"/><path d="m42.36 9.82c1.63-.12 3.04 1.11 3.16 2.75.01.2.01.39-.02.59 0 2.14-1.15 3.38-3.14 3.38h-2.41v-6.72zm-1.38 5.77h1.26c1.16.07 2.15-.82 2.22-1.98.01-.14 0-.29-.02-.43.16-1.16-.65-2.23-1.8-2.38-.13-.02-.27-.02-.4-.02h-1.26z"/><path d="m46.67 14c-.13-1.32.84-2.49 2.15-2.62s2.48.84 2.61 2.16c.01.15.01.31 0 .46.13 1.32-.83 2.49-2.15 2.62-1.31.13-2.48-.84-2.61-2.16-.01-.15-.01-.31 0-.46zm3.74 0c0-1.1-.49-1.74-1.35-1.74-.87 0-1.35.64-1.35 1.74 0 1.11.49 1.74 1.35 1.74s1.35-.64 1.35-1.74z"/><path d="m57.75 16.54h-1.03l-1.04-3.73h-.08l-1.04 3.73h-1.02l-1.39-5.07h1.01l.9 3.87h.07l1.04-3.87h.95l1.04 3.87h.08l.9-3.87h1z"/><path d="m60.31 11.47h.96v.8h.07c.26-.59.86-.95 1.5-.9.9-.07 1.69.61 1.76 1.52.01.12 0 .24-.01.36v3.28h-1v-3.03c0-.81-.35-1.22-1.09-1.22-.64-.03-1.18.47-1.21 1.11 0 .06 0 .12.01.18v2.96h-1z"/><path d="m66.17 9.49h1v7.04h-1z"/><path d="m68.55 14c-.13-1.32.84-2.49 2.15-2.62s2.48.84 2.61 2.16c.01.15.01.3 0 .46.13 1.32-.83 2.49-2.15 2.62-1.31.13-2.48-.84-2.61-2.16-.01-.15-.01-.31 0-.46zm3.73 0c0-1.1-.49-1.74-1.35-1.74-.87 0-1.35.64-1.35 1.74 0 1.11.49 1.74 1.35 1.74s1.35-.64 1.35-1.74z"/><path d="m74.36 15.1c0-.91.68-1.44 1.88-1.51l1.37-.08v-.44c0-.54-.35-.84-1.03-.84-.56 0-.94.2-1.05.56h-.96c.1-.87.92-1.43 2.06-1.43 1.26 0 1.98.63 1.98 1.7v3.46h-.96v-.71h-.08c-.33.52-.9.82-1.51.8-.84.09-1.59-.52-1.67-1.36-.03-.05-.03-.1-.03-.15zm3.24-.43v-.42l-1.23.08c-.69.05-1.01.28-1.01.73 0 .46.39.72.94.72.65.07 1.24-.41 1.3-1.07 0-.01 0-.03 0-.04z"/><path d="m79.9 14c0-1.6.82-2.61 2.09-2.61.64-.03 1.25.32 1.55.89h.07v-2.79h1v7.04h-.95v-.8h-.08c-.32.57-.93.91-1.58.88-1.29.01-2.1-1.01-2.1-2.61zm1.02 0c0 1.07.5 1.72 1.35 1.72.84 0 1.36-.66 1.36-1.72s-.52-1.72-1.36-1.72-1.35.65-1.35 1.72z"/><path d="m88.72 14c-.13-1.32.84-2.49 2.15-2.62s2.48.84 2.61 2.16c.01.15.01.31 0 .46.13 1.32-.83 2.49-2.15 2.62-1.31.13-2.48-.84-2.61-2.16-.01-.15-.01-.31 0-.46zm3.73 0c0-1.1-.49-1.74-1.35-1.74-.87 0-1.35.64-1.35 1.74 0 1.11.49 1.74 1.35 1.74s1.35-.64 1.35-1.74z"/><path d="m94.81 11.47h.96v.8h.07c.26-.59.86-.95 1.5-.9.9-.07 1.69.61 1.76 1.52.01.12 0 .24-.01.36v3.28h-1v-3.03c0-.81-.35-1.22-1.09-1.22-.64-.03-1.18.47-1.21 1.11 0 .06 0 .12.01.18v2.96h-1v-5.06z"/><path d="m104.72 10.21v1.28h1.09v.84h-1.09v2.6c0 .53.22.76.71.76.13 0 .25-.01.38-.02v.83c-.18.03-.36.05-.54.05-1.11 0-1.55-.39-1.55-1.37v-2.86h-.8v-.84h.8v-1.28h1z"/><path d="m107.17 9.49h.99v2.79h.08c.27-.6.89-.96 1.54-.91.92-.05 1.7.66 1.75 1.58.01.1 0 .21-.01.31v3.27h-1v-3.02c0-.81-.38-1.22-1.08-1.22-.65-.05-1.22.43-1.27 1.08-.01.07-.01.13 0 .2v2.96h-1z"/><path d="m117.31 15.17c-.28.96-1.2 1.57-2.18 1.47-1.26.03-2.32-.97-2.35-2.24 0-.13 0-.25.02-.38-.17-1.28.72-2.45 2-2.63.11-.01.22-.02.33-.02 1.4 0 2.25.96 2.25 2.55v.35h-3.56v.06c-.06.74.48 1.38 1.22 1.45.04 0 .08.01.13 0 .49.06.96-.18 1.2-.61zm-3.5-1.64h2.55c.05-.67-.45-1.26-1.12-1.31-.04 0-.08 0-.12 0-.71-.01-1.3.56-1.31 1.28z"/></g></svg>