<svg enable-background="new 0 0 134 45" viewBox="0 0 134 45" xmlns="http://www.w3.org/2000/svg" xmlns:xlink="http://www.w3.org/1999/xlink"><linearGradient id="a" gradientUnits="userSpaceOnUse" x1="20.8356" x2="4.5756" y1="11.3447" y2="27.6107"><stop offset="0" stop-color="#4998d3"/><stop offset=".01" stop-color="#4a99d3"/><stop offset=".26" stop-color="#42baeb"/><stop offset=".51" stop-color="#41c7f2"/><stop offset=".76" stop-color="#56c9e9"/><stop offset="1" stop-color="#5bcae8"/></linearGradient><linearGradient id="b" gradientUnits="userSpaceOnUse" x1="32.5069" x2="9.0044" y1="22.2591" y2="22.2591"><stop offset="0" stop-color="#fee000"/><stop offset=".41" stop-color="#febd11"/><stop offset=".78" stop-color="#faa51a"/><stop offset="1" stop-color="#f99c1c"/></linearGradient><linearGradient id="c" gradientUnits="userSpaceOnUse" x1="23.7506" x2="1.7001" y1="24.4934" y2="46.5439"><stop offset="0" stop-color="#ef4049"/><stop offset="1" stop-color="#c31e63"/></linearGradient><linearGradient id="d" gradientUnits="userSpaceOnUse" x1="6.7509" x2="16.5987" y1="3.0852" y2="12.933"><stop offset="0" stop-color="#32a072"/><stop offset=".07" stop-color="#2da771"/><stop offset=".48" stop-color="#4bba71"/><stop offset=".8" stop-color="#5ebd6b"/><stop offset="1" stop-color="#66be69"/></linearGradient><g stroke="#fff" stroke-miterlimit="10"><path d="m133.46 38.13c0 3.92-3 6.32-7 6.32h-118.61c-4.04 0-7.31-3.15-7.31-7.05 0-.02 0-.04 0-.06v-29.75c0-3.89 3.27-7.05 7.31-7.05h118.61c4.06 0 7 3.13 7 7.05z" fill="#020202"/><path d="m45.7 12.83c.04.71-.23 1.41-.73 1.93-.56.56-1.32.87-2.12.84-1.67 0-3.03-1.35-3.03-3.01s1.35-3.01 3.03-3.01c.42 0 .83.08 1.21.24.35.15.66.37.91.66l-.48.48c-.4-.44-.98-.69-1.57-.66-1.24 0-2.24 1-2.24 2.23v.06c-.01 1.26 1.01 2.3 2.28 2.31.59 0 1.16-.22 1.59-.62.31-.33.48-.76.48-1.2h-2.18v-.66h2.84c.02.13.02.27.01.41z" fill="#fff" stroke-width=".32"/><path d="m50.17 10.42h-2.66v1.81h2.42v.72h-2.42v1.87h2.66v.72h-3.39v-5.84h3.39z" fill="#fff" stroke-width=".32"/><path d="m53.32 15.48h-.72v-5.06h-1.63v-.72h3.99v.72h-1.63v5.06z" fill="#fff" stroke-width=".32"/><path d="m57.86 15.48v-5.78h.73v5.78z" fill="#fff" stroke-width=".32"/><path d="m61.92 15.48h-.73v-5.06h-1.63v-.72h3.99v.72h-1.63z" fill="#fff" stroke-width=".32"/><path d="m71.12 14.76c-1.18 1.18-3.09 1.19-4.28.02-.01-.01-.01-.01-.02-.02-.57-.58-.88-1.36-.85-2.17-.03-.81.28-1.59.85-2.17 1.18-1.18 3.09-1.19 4.28-.02.01.01.01.01.02.02.57.58.88 1.36.85 2.17.02.81-.28 1.59-.85 2.17zm-3.7-.48c.87.86 2.28.86 3.15 0 .45-.45.69-1.06.67-1.69.02-.63-.22-1.24-.67-1.69-.87-.86-2.28-.86-3.15 0-.45.45-.69 1.06-.67 1.69-.01.63.23 1.24.67 1.69z" fill="#fff" stroke-width=".32"/><path d="m73.05 15.48v-5.78h.91l2.84 4.52h.06v-4.52h.73v5.78h-.79l-2.97-4.76h-.06v4.76z" fill="#fff" stroke-width=".32"/></g><path d="m65.85 23.98c-2.27.03-4.09 1.89-4.05 4.16s1.9 4.07 4.18 4.04c2.25-.03 4.06-1.86 4.06-4.09.03-2.23-1.75-4.06-3.99-4.1-.08-.02-.14-.02-.2-.01zm0 6.62c-1.37.07-2.53-.98-2.6-2.35-.07-1.36.99-2.52 2.36-2.59s2.53.98 2.6 2.35v.12c.03 1.3-1 2.38-2.3 2.41-.02 0-.04 0-.06 0zm-9.02-6.62c-2.27.03-4.09 1.89-4.05 4.16s1.9 4.07 4.18 4.04c2.25-.03 4.06-1.86 4.06-4.09.04-2.23-1.75-4.06-3.99-4.1-.08 0-.16 0-.25 0h.05zm0 6.62c-1.37.07-2.53-.98-2.6-2.35-.07-1.36.99-2.52 2.36-2.59s2.53.98 2.6 2.35v.12c.03 1.3-1 2.38-2.3 2.41-.04 0-.08 0-.12 0zm-10.83-5.36v1.75h4.18c-.07.81-.41 1.57-.97 2.17-.86.86-2.05 1.32-3.27 1.26-2.57 0-4.66-2.08-4.66-4.64s2.09-4.64 4.66-4.64c1.18-.01 2.31.45 3.15 1.26l1.21-1.2c-1.18-1.15-2.77-1.78-4.42-1.75-3.54 0-6.42 2.86-6.42 6.38s2.87 6.38 6.42 6.38c1.68.07 3.32-.59 4.48-1.81 1.02-1.12 1.57-2.59 1.51-4.1-.01-.36-.05-.73-.12-1.08h-5.75zm44 1.33c-.51-1.51-1.91-2.55-3.51-2.59-2.17.03-3.91 1.81-3.88 3.97v.13c-.03 2.23 1.75 4.06 3.99 4.1h.12c1.38.01 2.68-.67 3.45-1.81l-1.39-.96c-.43.72-1.22 1.16-2.06 1.14-.86.02-1.65-.48-2-1.26l5.51-2.29zm-5.63 1.38c-.1-1.23.82-2.3 2.05-2.4.04 0 .09-.01.13-.01.63-.05 1.22.29 1.51.84zm-4.48 3.98h1.82v-12.05h-1.82zm-2.96-7.05h-.06c-.56-.6-1.36-.93-2.18-.9-2.29 0-4.15 1.85-4.15 4.13s1.86 4.13 4.15 4.13c.83.01 1.63-.34 2.18-.96h.06v.6c0 1.57-.85 2.41-2.18 2.41-.91-.03-1.72-.6-2.06-1.45l-1.57.66c.61 1.46 2.04 2.41 3.63 2.41 2.12 0 3.93-1.26 3.93-4.28v-7.41h-1.69zm-2.06 5.66c-1.39-.21-2.34-1.51-2.12-2.89.17-1.09 1.03-1.94 2.12-2.11 1.21 0 2.18 1.08 2.18 2.53.1 1.26-.84 2.36-2.11 2.46-.02.01-.05.01-.07.01zm23.67-10.72h-4.36v12.11h1.82v-4.58h2.54c2.09 0 3.78-1.69 3.78-3.76s-1.7-3.77-3.78-3.77zm.06 5.84h-2.6v-4.1h2.6c1.15 0 2.09.93 2.09 2.08s-.93 2.08-2.09 2.08zm11.19-1.74c-1.35-.07-2.61.66-3.21 1.87l1.63.66c.31-.6.96-.96 1.63-.9.91 0 1.88.54 1.88 1.57v.12c-.58-.31-1.22-.48-1.88-.48-1.76 0-3.51.96-3.51 2.71s1.39 2.65 3.03 2.65c.93.05 1.81-.41 2.3-1.2h.06v.9h1.76v-4.52c.01-2.18-1.63-3.38-3.69-3.38zm-.24 6.62c-.61 0-1.39-.3-1.39-1.02s1.03-1.26 1.94-1.26c.57-.01 1.14.14 1.63.42-.15 1.07-1.08 1.87-2.18 1.86zm10.29-6.38-2.06 5.24h-.06l-2.18-5.24h-1.94l3.21 7.35-1.81 4.09h1.88l4.96-11.38zm-16.34 7.71h1.82v-11.99h-1.82z" fill="#fff"/><path d="m9.8 10.24c-.32.39-.47.89-.42 1.39v21.32c-.05.5.11 1 .42 1.39h.06l12.04-11.93v-.3l-12.04-11.93z" fill="url(#a)"/><path d="m25.9 26.39-3.99-3.98v-.3l3.99-3.98h.06l4.78 2.71c1.33.78 1.33 2.05 0 2.77l-4.78 2.71z" fill="url(#b)"/><path d="m25.96 26.39-4.06-4.1-12.1 12.05c.42.48 1.21.54 2 .06z" fill="url(#c)"/><path d="m25.96 18.19-14.16-8.01c-.85-.48-1.57-.42-2 .06l12.11 12.05z" fill="url(#d)"/><path d="m25.9 26.26-14.1 7.95c-.79.42-1.51.42-1.94 0 .42.42 1.15.42 1.94 0l14.16-7.83z" fill="#010101" opacity=".2"/><path d="m9.8 34.16c-.32-.39-.47-.89-.42-1.39v.12c-.05.5.11 1 .42 1.39z" fill="#010101" opacity=".12"/><path d="m30.75 23.55-4.84 2.71h.06l4.78-2.59c.57-.24.97-.77 1.03-1.39-.13.57-.51 1.04-1.03 1.27z" fill="#010101" opacity=".12"/><path d="m11.8 10.3 18.94 10.72c.53.24.91.7 1.03 1.26-.06-.61-.46-1.15-1.03-1.39l-18.94-10.71c-1.33-.78-2.48-.12-2.48 1.45v.12c0-1.57 1.15-2.23 2.48-1.45z" fill="#fff" opacity=".25"/></svg>